<svg width="364" height="148" viewBox="0 0 364 148" fill="none" xmlns="http://www.w3.org/2000/svg">
<path d="M63.9775 4.13263C68.9418 1.28912 75.0581 1.28912 80.0225 4.13263L128.978 32.1735C133.942 35.017 137 40.2721 137 45.9591V102.041C137 107.728 133.942 112.983 128.978 115.826L80.0225 143.867C75.0582 146.711 68.9419 146.711 63.9775 143.867L15.0225 115.826C10.0582 112.983 7 107.728 7 102.041V45.9591C7 40.2721 10.0581 35.0171 15.0225 32.1735L63.9775 4.13263Z" fill="#0A0A0A"/>
<path fill-rule="evenodd" clip-rule="evenodd" d="M74.5187 68.1161L58.3996 44.08H45.4705L59.2217 64.5853L56.8546 68.1151L38 40H60.3977L76.8859 64.5863L74.5187 68.1161ZM75.9399 77.7646L98.5295 44.08H85.6004L78.3163 54.9418L75.9491 51.412L83.6023 40H106L78.3071 81.2944L75.9399 77.7646ZM65.6853 66.717L68.0524 70.2468L45.4705 103.92H58.3996L65.6831 93.0592L68.0502 96.589L60.3977 108H38L65.6853 66.717ZM69.4795 79.8971L85.6004 103.92H98.5295L84.7794 83.4163L87.1465 79.8865L106 108H83.6023L67.1176 83.4189L69.4795 79.8971Z" fill="white"/>
<path d="M308.759 122C304.572 122 300.777 121.264 297.375 119.792C293.972 118.319 291.006 116.068 288.476 113.037C286.033 110.005 284.158 106.195 282.849 101.605C281.541 97.0149 280.886 91.6022 280.886 85.3667C280.886 77.0528 282.02 70.2111 284.289 64.8417C286.644 59.3857 289.916 55.3586 294.103 52.7605C298.291 50.0758 303.176 48.7334 308.759 48.7334C312.162 48.7334 315.215 49.253 317.92 50.2923C320.711 51.2449 323.11 52.6306 325.117 54.4493C327.123 56.2679 328.65 58.3897 329.697 60.8146H331.006V26H356V120.701H331.922L331.006 109.919H329.697C328.127 113.556 325.51 116.501 321.845 118.752C318.181 120.917 313.819 122 308.759 122ZM318.574 102.124C321.54 102.124 323.896 101.475 325.64 100.176C327.385 98.7903 328.65 97.0582 329.435 94.9797C330.308 92.8146 330.744 90.5629 330.744 88.2246V82.5088C330.744 80.6901 330.526 78.9581 330.09 77.3126C329.653 75.6671 328.956 74.1949 327.996 72.8958C327.036 71.5968 325.771 70.5575 324.201 69.7781C322.631 68.9986 320.755 68.6089 318.574 68.6089C316.131 68.6089 313.994 69.1719 312.162 70.2977C310.33 71.4235 308.89 73.1989 307.843 75.6238C306.884 78.0487 306.404 81.2963 306.404 85.3667C306.404 89.3505 306.884 92.5981 307.843 95.1096C308.89 97.5345 310.33 99.3099 312.162 100.436C313.994 101.562 316.131 102.124 318.574 102.124Z" fill="#0A0A0A"/>
<path d="M249.502 120.701V50.0325H274.497V120.701H249.502ZM249.502 42.6279V26H274.497V42.6279H249.502Z" fill="#0A0A0A"/>
<path d="M162 120.701L187.91 84.7172L164.225 50.0325H193.93L204.791 67.9594H205.707L216.569 50.0325H244.965L222.065 84.0677L247.19 120.701H217.746L204.922 100.306H203.875L190.135 120.701H162Z" fill="#0A0A0A"/>
</svg>
