<?xml version="1.0" encoding="utf-8"?>
<svg viewBox="11.9666 0.986 51.11 71.275" width="51.11px" height="71.275px" xmlns="http://www.w3.org/2000/svg"><mask id="b6fd1f9a-1d3e-46b3-bbd7-29aad0ae6197"><g class="tp-graph"><polyline data-gra="graph-name" points="0,0 51.11,12 51.11,59.275 0,71.275" fill="#fff"/><g data-gra="path-name" transform="translate(3,15)" stroke="#000" stroke-width="3" fill="#000"><g transform="scale(1)"><path d="M19.63-41.27L25.16-28.28L35.10-41.27L42.90-41.27L27.50-22.75L37.18 0L21.13 0L15.60-12.94L5.59 0L-2.21 0L13.13-18.79L3.58-41.27L19.63-41.27Z" transform="translate(2.21, 41.275)"/></g></g><g data-gra="path-name" transform="translate(3,15)" fill="#fff"><g transform="scale(1)"><path d="M19.63-41.27L25.16-28.28L35.10-41.27L42.90-41.27L27.50-22.75L37.18 0L21.13 0L15.60-12.94L5.59 0L-2.21 0L13.13-18.79L3.58-41.27L19.63-41.27Z" transform="translate(2.21, 41.275)"/></g></g></g></mask><g data-v-0dd9719b="" fill="#000000" class="newinitialsvg-g newinitialsvg" transform="matrix(1, 0, 0, 1, 11.966604232788086, 0.9859709739685059)" id="object-0"><g class="tp-name"><g class="tp-graph" transform="translate(0, 0)" fill="#000000" mask="url(#b6fd1f9a-1d3e-46b3-bbd7-29aad0ae6197)"><polyline data-gra="graph-name" fill="#000000" points="0,0 51.11,12 51.11,59.275 0,71.275"/><g data-gra="path-name" transform="translate(3,15)"><g transform="scale(1)"><path d="M19.63-41.27L25.16-28.28L35.10-41.27L42.90-41.27L27.50-22.75L37.18 0L21.13 0L15.60-12.94L5.59 0L-2.21 0L13.13-18.79L3.58-41.27L19.63-41.27Z" transform="translate(2.21, 41.275)"/></g></g></g></g></g></svg>